<svg version="1.1" id="Layer_1" xmlns="http://www.w3.org/2000/svg" xmlns:xlink="http://www.w3.org/1999/xlink" x="0px" y="0px"
	 viewBox="-410 258.1 138.8 45.9" style="enable-background:new -410 258.1 138.8 45.9;" xml:space="preserve">
<style type="text/css">
	.st0{fill:#FFFFFF;}
</style>
<g>
	<g>
		<path class="st0" d="M-364.5,282.1v14.4c0,2,1.6,3.6,3.6,3.6c2,0,3.6-1.6,3.6-3.6v-19C-358.9,279.8-361.4,281.5-364.5,282.1z"/>
		<path class="st0" d="M-358.2,274.1c0.1-0.2,0.2-0.5,0.3-0.7c0.3-0.8,0.5-2.5,0.6-3.4l0-2.7c0-2-1.6-3.6-3.6-3.6
			c-2,0-3.6,1.6-3.6,3.6v10.8c0.6,0,1.1-0.1,1.6-0.3C-361,277.2-359.2,275.9-358.2,274.1z"/>
	</g>
	<path class="st0" d="M-381.1,268.6l-10.9,29c-0.6,1.5-2,2.4-3.4,2.4c-0.1,0-0.1,0-0.1,0c-1.5,0-2.9-1-3.4-2.4l-10.9-29
		c-0.7-1.9,0.2-4,2.1-4.6c1.9-0.7,3.9,0.2,4.6,2.1l7.6,20.2l7.5-20.2c0.7-1.9,2.8-2.8,4.6-2.1C-381.3,264.6-380.4,266.7-381.1,268.6
		z"/>
	<path class="st0" d="M-306.9,267.3c0,2-1.6,3.6-3.6,3.6c-6.1,0-11,4.9-11,11v14.6c0,2-1.6,3.6-3.6,3.6c-2,0-3.6-1.7-3.6-3.6v-14.6
		c0-10.1,8.2-18.2,18.2-18.2C-308.5,263.7-306.9,265.3-306.9,267.3z"/>
	<path class="st0" d="M-334.9,292.9c-6.1,0-11-4.9-11-11v-3.8h5.1c2,0,3.6-1.7,3.6-3.6c0-2-1.6-3.6-3.6-3.6h-5.1v-3.6
		c0-2-1.6-3.6-3.6-3.6c-2,0-3.6,1.7-3.6,3.6v14.6c0,10.1,8.2,18.2,18.2,18.2c2,0,3.6-1.6,3.6-3.6S-332.9,292.9-334.9,292.9z"/>
	<g>
		<path class="st0" d="M-376.4,277.4v19.1c0,2,1.6,3.6,3.6,3.6c2,0,3.6-1.6,3.6-3.6v-14.5C-372.3,281.5-374.8,279.8-376.4,277.4z"/>
		<path class="st0" d="M-372.8,263.7c-2,0-3.6,1.6-3.6,3.6v3.5h0c0,0.9,0.2,1.8,0.6,2.7c0.1,0.2,0.2,0.5,0.3,0.7
			c1,1.8,2.7,3.1,4.6,3.7c0.5,0.2,1.1,0.3,1.6,0.3v-10.9C-369.2,265.3-370.8,263.7-372.8,263.7z"/>
	</g>
	<path class="st0" d="M-281.3,265.5c1.1,1.6,1.7,3.4,1.7,5.4c0,1.5-0.4,2.9-1,4.2c1.4,1.8,2.2,4.1,2.3,6.5c0,0.2,0,0.3,0,0.5
		c0,6.1-4.6,10.7-10.7,10.7c-6.1,0-11.2-4.6-11.2-10.7c0-6,5-11.1,10.9-11.2c0,0,0.1,0,0.1,0c0.1,0,0.2,0,0.2,0c0,0,0.1,0,0.1,0
		c0.1,0,0.1,0,0.2,0c2.1,0.1,4.1,0.8,5.7,1.9c0,0,0,0,0,0c0.2-0.7,0.3-1.4,0.3-2.1c0-1.8-0.7-3.6-1.9-4.8c-1.1-1.1-2.7-1.9-4.4-2
		l0,0c-0.2,0-0.4,0-0.6,0c-0.1,0-0.2,0-0.4,0c0,0,0,0,0,0c-9.8,0.5-17.4,8.4-17.4,18.3c0,10.2,8.1,17.8,18.3,17.8
		c4.1,0,7.6-1,10.7-3.6c0,2.1,2,3.6,3.5,3.6c2.1,0,3.6-1.5,3.6-3.6v-14.2C-271.2,274.7-275.2,268.4-281.3,265.5z"/>
</g>
</svg>
